<?xml version="1.0" encoding="utf-8"?>
<!-- Generator: Adobe Illustrator 22.1.0, SVG Export Plug-In . SVG Version: 6.00 Build 0)  -->
<svg version="1.1" id="Ebene_1" xmlns="http://www.w3.org/2000/svg" xmlns:xlink="http://www.w3.org/1999/xlink" x="0px" y="0px"
	 width="1160px" height="360px" viewBox="0 0 1160 360" enable-background="new 0 0 1160 360" xml:space="preserve">
<g>
	<g>
		<path fill="#29ABE2" d="M851.875,116.822v-8.114c0-0.389,1.45-25.104,31.352-25.104h93.709l0.022,6.273h-93.731
			c-23.973,0-25.061,18.193-25.095,18.966l0,7.813L851.875,116.822z"/>
	</g>
	<g>
		<path fill="#29ABE2" d="M857.991,187.186c-0.674,7.947-3.702,14.57-9.027,19.725c-12.512,12.114-33.172,11.562-34.046,11.562
			h-90.071V212.2h90.172c0.286,0,19.03,0.452,29.607-9.814c4.004-3.885,6.368-8.895,7.045-14.933L857.991,187.186z"/>
	</g>
	<g>
		<g>
			<path fill="#29ABE2" d="M823.562,113.933v4.216h-5.947c-1.693,0-3.066,1.368-3.066,3.064c0,1.695,1.373,3.065,3.066,3.065h5.947
				v9.2h-5.947c-1.693,0-3.066,1.369-3.066,3.066c0,1.693,1.373,3.063,3.066,3.063h5.947v9.192h-5.947
				c-1.693,0-3.066,1.372-3.066,3.064c0,1.693,1.373,3.063,3.066,3.063h5.947v9.207h-5.947c-1.693,0-3.066,1.374-3.066,3.066
				c0,1.692,1.373,3.065,3.066,3.065h5.947v9.199h-5.947c-1.693,0-3.066,1.367-3.066,3.065c0,1.692,1.373,3.065,3.066,3.065h5.947
				v4.212h59.78v-75.874H823.562z M877.785,184.007h-48.677v-64.37h48.677V184.007z"/>
		</g>
		<path id="Call__x2014__Used_to_call_a_number_in_your_data_set_using_the_phone_app._17_" fill="#29ABE2" d="M868.727,167.073
			c0.509-0.435,0.635-1.179,0.263-1.757c-0.04-0.07-0.097-0.129-0.15-0.187v-0.009l-6.508-7.18l-0.003,0.009
			c-0.436-0.495-1.164-0.616-1.737-0.245c-0.058,0.035-0.104,0.081-0.152,0.124l0,0c-0.037,0.024-0.064,0.044-0.086,0.078
			c-0.682,0.625-0.695,0.725-1.26,1.277c-0.789,0.797-1.784,2.088-2.82,3.567c-2.094-0.8-4.901-3.38-7.661-7.67
			c-2.756-4.291-3.935-7.916-3.794-10.149c1.777-0.323,3.36-0.7,4.42-1.084c0.733-0.283,0.821-0.258,1.684-0.612
			c0.035-0.02,0.069-0.027,0.112-0.045v-0.002c0.051-0.028,0.113-0.054,0.169-0.091c0.572-0.366,0.766-1.083,0.497-1.686
			l0.008-0.007l-3.823-8.891l-0.015-0.004c-0.033-0.073-0.064-0.147-0.106-0.212c-0.37-0.573-1.104-0.775-1.703-0.485
			c-4.241,1.73-8.181,3.777-8.458,7.156c-0.306,3.63,2.214,12.313,6.509,19.002c4.312,6.691,11.169,12.586,14.588,13.816
			C861.893,172.936,865.394,170.207,868.727,167.073"/>
	</g>
</g>
<g>
	<g>
		<path fill="#29ABE2" d="M271.131,216.954c-5.343,0-19.747-0.948-29.937-10.45c-6.999-6.527-10.549-15.691-10.549-27.238v-17.251
			h6.273v17.251c0,9.737,2.878,17.356,8.553,22.649c10.488,9.778,27.129,8.739,27.297,8.723l0.219-0.008h145.098v6.273H273.087
			C272.805,216.921,272.123,216.954,271.131,216.954z"/>
	</g>
</g>
<g>
	<path fill="#29ABE2" d="M262.919,24.292H204.8c-5.558,0-10.048,4.507-10.048,10.065v118.007c0,5.541,4.49,10.052,10.048,10.052
		h58.119c5.549,0,10.057-4.507,10.057-10.052V34.358C272.971,28.8,268.468,24.292,262.919,24.292z M256.288,30.591
		c1.417-0.004,2.577,1.151,2.577,2.572c0,1.421-1.16,2.572-2.577,2.572c-1.421,0-2.576-1.155-2.576-2.572
		C253.712,31.747,254.867,30.591,256.288,30.591z M220.389,31.568h26.949v2.938h-0.004h-26.945V31.568z M246.126,151.693h-24.538
		v-7.55h24.538V151.693z M265.438,136.204h-63.149V41.272h63.149V136.204z"/>
</g>
<g>
	<path fill="#29ABE2" d="M305.335,293.948l100.468-0.199c0.282,0.017,0.963,0.05,1.956,0.05c5.343,0,19.747-0.948,29.938-10.45
		c6.999-6.527,10.549-15.691,10.549-27.238V238.86h-6.273v17.251c0,9.736-2.878,17.356-8.553,22.649
		c-10.488,9.778-27.129,8.739-27.297,8.723l-0.219-0.008l-100.735,0.398L305.335,293.948z"/>
</g>
<g>
	<g>
		<path fill="#29ABE2" d="M307.836,253.124v75.874h-59.78v-4.213h-5.947c-1.693,0-3.066-1.372-3.066-3.065
			c0-1.698,1.374-3.065,3.066-3.065h5.947v-9.199h-5.947c-1.693,0-3.066-1.374-3.066-3.066c0-1.693,1.374-3.066,3.066-3.066h5.947
			v-9.207v-6.127v-9.192h-5.947c-1.693,0-3.066-1.37-3.066-3.063c0-1.698,1.374-3.066,3.066-3.066h5.947v-9.2h-5.947
			c-1.693,0-3.066-1.37-3.066-3.065c0-1.696,1.374-3.064,3.066-3.064h5.947v-4.216H307.836z M302.278,258.828h-48.677v64.37h48.677
			V258.828z"/>
	</g>
	<path id="Call__x2014__Used_to_call_a_number_in_your_data_set_using_the_phone_app._16_" fill="#29ABE2" d="M293.22,306.263
		c0.509-0.435,0.635-1.179,0.263-1.757c-0.04-0.07-0.097-0.129-0.15-0.187v-0.009l-6.508-7.18l-0.003,0.009
		c-0.436-0.495-1.164-0.616-1.737-0.245c-0.058,0.035-0.104,0.081-0.152,0.124l0,0c-0.037,0.024-0.064,0.044-0.086,0.078
		c-0.682,0.625-0.695,0.725-1.26,1.277c-0.789,0.797-1.784,2.088-2.82,3.567c-2.094-0.8-4.901-3.38-7.661-7.67
		c-2.756-4.291-3.935-7.916-3.794-10.148c1.777-0.323,3.36-0.7,4.42-1.084c0.733-0.283,0.821-0.258,1.684-0.612
		c0.035-0.02,0.069-0.027,0.112-0.045v-0.002c0.051-0.028,0.113-0.054,0.169-0.091c0.572-0.366,0.766-1.083,0.497-1.686l0.008-0.007
		l-3.823-8.891l-0.015-0.004c-0.033-0.073-0.064-0.147-0.106-0.212c-0.37-0.573-1.104-0.775-1.703-0.485
		c-4.241,1.73-8.181,3.777-8.458,7.156c-0.306,3.63,2.214,12.313,6.509,19.002c4.312,6.691,11.169,12.586,14.587,13.816
		C286.387,312.127,289.887,309.398,293.22,306.263"/>
</g>
<g>
	<polygon fill="#29ABE2" points="250.834,288.088 141.164,288.521 142.209,294.271 250.751,294.056 	"/>
</g>
<g>
	<g>
		<path fill="#29ABE2" d="M10.508,236.748c-4.812,0-8.75,3.938-8.75,8.75v87.5c0,4.812,3.938,8.75,8.75,8.75h4.473v-105H10.508z"/>
	</g>
	<g>
		<path fill="#29ABE2" d="M133.008,236.748H58.731v105h74.277c4.812,0,8.75-3.938,8.75-8.75v-87.5
			C141.758,240.686,137.82,236.748,133.008,236.748z M71.856,319.873c-2.416,0-4.375-1.959-4.375-4.375
			c0-2.417,1.959-4.375,4.375-4.375c2.417,0,4.375,1.958,4.375,4.375C76.231,317.914,74.272,319.873,71.856,319.873z
			 M71.856,306.748c-2.416,0-4.375-1.959-4.375-4.375c0-2.417,1.959-4.375,4.375-4.375c2.417,0,4.375,1.958,4.375,4.375
			C76.231,304.789,74.272,306.748,71.856,306.748z M71.856,293.623c-2.416,0-4.375-1.959-4.375-4.375
			c0-2.417,1.959-4.375,4.375-4.375c2.417,0,4.375,1.958,4.375,4.375C76.231,291.664,74.272,293.623,71.856,293.623z
			 M91.543,317.686c0,1.203-0.984,2.188-2.188,2.188h-4.375c-1.203,0-2.188-0.985-2.188-2.188v-4.375
			c0-1.203,0.984-2.188,2.188-2.188h4.375c1.203,0,2.188,0.984,2.188,2.188V317.686z M91.543,304.561
			c0,1.203-0.984,2.188-2.188,2.188h-4.375c-1.203,0-2.188-0.985-2.188-2.188v-4.375c0-1.203,0.984-2.188,2.188-2.188h4.375
			c1.203,0,2.188,0.984,2.188,2.188V304.561z M91.543,291.436c0,1.203-0.984,2.188-2.188,2.188h-4.375
			c-1.203,0-2.188-0.985-2.188-2.188v-4.375c0-1.203,0.984-2.188,2.188-2.188h4.375c1.203,0,2.188,0.984,2.188,2.188V291.436z
			 M104.668,317.686c0,1.203-0.984,2.188-2.188,2.188h-4.375c-1.203,0-2.188-0.985-2.188-2.188v-4.375
			c0-1.203,0.984-2.188,2.188-2.188h4.375c1.203,0,2.188,0.984,2.188,2.188V317.686z M104.668,304.561
			c0,1.203-0.984,2.188-2.188,2.188h-4.375c-1.203,0-2.188-0.985-2.188-2.188v-4.375c0-1.203,0.984-2.188,2.188-2.188h4.375
			c1.203,0,2.188,0.984,2.188,2.188V304.561z M104.668,291.436c0,1.203-0.984,2.188-2.188,2.188h-4.375
			c-1.203,0-2.188-0.985-2.188-2.188v-4.375c0-1.203,0.984-2.188,2.188-2.188h4.375c1.203,0,2.188,0.984,2.188,2.188V291.436z
			 M117.793,317.686c0,1.203-0.984,2.188-2.188,2.188h-4.375c-1.203,0-2.188-0.985-2.188-2.188v-4.375
			c0-1.203,0.984-2.188,2.188-2.188h4.375c1.203,0,2.188,0.984,2.188,2.188V317.686z M117.793,304.561
			c0,1.203-0.984,2.188-2.188,2.188h-4.375c-1.203,0-2.188-0.985-2.188-2.188v-4.375c0-1.203,0.984-2.188,2.188-2.188h4.375
			c1.203,0,2.188,0.984,2.188,2.188V304.561z M117.793,291.436c0,1.203-0.984,2.188-2.188,2.188h-4.375
			c-1.203,0-2.188-0.985-2.188-2.188v-4.375c0-1.203,0.984-2.188,2.188-2.188h4.375c1.203,0,2.188,0.984,2.188,2.188V291.436z
			 M119.981,271.748H80.606c-2.406,0-4.375-1.969-4.375-4.375v-8.75c0-2.407,1.969-4.375,4.375-4.375h39.375
			c2.406,0,4.375,1.968,4.375,4.375v8.75C124.356,269.779,122.387,271.748,119.981,271.748z M128.731,319.873
			c-2.416,0-4.375-1.959-4.375-4.375c0-2.417,1.959-4.375,4.375-4.375c2.417,0,4.375,1.958,4.375,4.375
			C133.106,317.914,131.147,319.873,128.731,319.873z M128.731,306.748c-2.416,0-4.375-1.959-4.375-4.375
			c0-2.417,1.959-4.375,4.375-4.375c2.417,0,4.375,1.958,4.375,4.375C133.106,304.789,131.147,306.748,128.731,306.748z
			 M128.731,293.623c-2.416,0-4.375-1.959-4.375-4.375c0-2.417,1.959-4.375,4.375-4.375c2.417,0,4.375,1.958,4.375,4.375
			C133.106,291.664,131.147,293.623,128.731,293.623z"/>
	</g>
	<g>
		<path fill="#29ABE2" d="M45.606,346.123h-17.5c-4.812,0-8.75-3.938-8.75-8.75V236.748c0-4.812,3.938-8.75,8.75-8.75h17.5
			c4.812,0,8.75,3.938,8.75,8.75v100.625C54.356,342.185,50.418,346.123,45.606,346.123z"/>
	</g>
</g>
<g>
	<g>
		<polygon fill="#29ABE2" points="1000.498,117.579 1000.498,153.235 1082.412,153.235 1082.412,117.579 1082.412,93.802 
			1000.498,93.802 		"/>
	</g>
	<g>
		<path fill="#29ABE2" d="M1052.543,35.716c1.84,0.002,3.678,1.845,3.676,3.685l-0.007,5.521c-0.002,1.84,1.836,3.683,3.676,3.685
			l14.722,0.018c1.84,0.002,3.683-1.836,3.685-3.676l0.007-5.521c0.004-3.68-7.344-14.731-36.788-14.766
			c-29.444-0.035-36.819,10.998-36.823,14.678l-0.007,5.521c-0.002,1.84,1.836,3.683,3.676,3.685l14.722,0.018
			c1.84,0.002,3.683-1.836,3.685-3.676l0.007-5.521c0.002-1.84,1.845-3.678,3.685-3.676
			C1033.405,35.693,1049.598,35.713,1052.543,35.716z"/>
	</g>
	<g>
		<path fill="#29ABE2" d="M1098.807,54.863H984.04c-4.509,0-8.198,3.689-8.198,8.198v40.988c0,4.509,3.689,8.198,8.198,8.198
			h114.767c4.509,0,8.198-3.689,8.198-8.198V63.061C1107.005,58.552,1103.316,54.863,1098.807,54.863z M1076.264,71.259
			c2.264,0,4.099,1.835,4.099,4.099s-1.835,4.099-4.099,4.099c-2.264,0-4.099-1.835-4.099-4.099S1074,71.259,1076.264,71.259z
			 M1047.572,63.061c0-1.127,0.922-2.049,2.049-2.049h4.099c1.127,0,2.05,0.922,2.05,2.049v4.099c0,1.127-0.922,2.049-2.05,2.049
			h-4.099c-1.127,0-2.049-0.922-2.049-2.049V63.061z M1047.572,73.308c0-1.127,0.922-2.049,2.049-2.049h4.099
			c1.127,0,2.05,0.922,2.05,2.049v4.099c0,1.127-0.922,2.05-2.05,2.05h-4.099c-1.127,0-2.049-0.922-2.049-2.05V73.308z
			 M1047.572,83.555c0-1.127,0.922-2.049,2.049-2.049h4.099c1.127,0,2.05,0.922,2.05,2.049v4.099c0,1.127-0.922,2.049-2.05,2.049
			h-4.099c-1.127,0-2.049-0.922-2.049-2.049V83.555z M1037.325,63.061c0-1.127,0.922-2.049,2.049-2.049h4.099
			c1.127,0,2.05,0.922,2.05,2.049v4.099c0,1.127-0.922,2.049-2.05,2.049h-4.099c-1.127,0-2.049-0.922-2.049-2.049V63.061z
			 M1037.325,73.308c0-1.127,0.922-2.049,2.049-2.049h4.099c1.127,0,2.05,0.922,2.05,2.049v4.099c0,1.127-0.922,2.05-2.05,2.05
			h-4.099c-1.127,0-2.049-0.922-2.049-2.05V73.308z M1037.325,83.555c0-1.127,0.922-2.049,2.049-2.049h4.099
			c1.127,0,2.05,0.922,2.05,2.049v4.099c0,1.127-0.922,2.049-2.05,2.049h-4.099c-1.127,0-2.049-0.922-2.049-2.049V83.555z
			 M1027.078,63.061c0-1.127,0.922-2.049,2.049-2.049h4.099c1.127,0,2.05,0.922,2.05,2.049v4.099c0,1.127-0.922,2.049-2.05,2.049
			h-4.099c-1.127,0-2.049-0.922-2.049-2.049V63.061z M1027.078,73.308c0-1.127,0.922-2.049,2.049-2.049h4.099
			c1.127,0,2.05,0.922,2.05,2.049v4.099c0,1.127-0.922,2.05-2.05,2.05h-4.099c-1.127,0-2.049-0.922-2.049-2.05V73.308z
			 M1027.078,83.555c0-1.127,0.922-2.049,2.049-2.049h4.099c1.127,0,2.05,0.922,2.05,2.049v4.099c0,1.127-0.922,2.049-2.05,2.049
			h-4.099c-1.127,0-2.049-0.922-2.049-2.049V83.555z M990.188,73.308c0-1.127,0.922-2.049,2.049-2.049h24.593
			c1.127,0,2.049,0.922,2.049,2.049v4.099c0,1.127-0.922,2.05-2.049,2.05h-24.593c-1.127,0-2.049-0.922-2.049-2.05V73.308z
			 M1094.044,102H990.442v-8.198h103.602V102z"/>
	</g>
</g>
<g>
	<g>
		<path fill="#29ABE2" d="M887.596,284.313c0.108-0.63,0.167-1.278,0.167-1.945c0-6.298-5.067-11.403-11.32-11.403
			c-2.789,0-5.343,1.016-7.315,2.707c-3.515-7.979-8.02-15.262-20.66-15.262c-15.329,0-22.595,11.912-22.595,24.482
			c0,0.525,0.022,1.046,0.058,1.562c-8.148,1.672-14.28,8.932-14.28,17.635c0,9.94,8,17.999,17.864,17.999h55.274
			c9.864,0,17.861-8.059,17.861-17.999C902.65,293.111,896.128,285.674,887.596,284.313z M844.101,280.615l-0.706,0.347
			c-0.659,0.324-1.458,0.052-1.782-0.606l-0.563-1.145c-0.157-0.319-0.181-0.68-0.066-1.017c0.115-0.336,0.354-0.608,0.672-0.766
			l0.705-0.347c0.022-0.011,0.067-0.058,0.095-0.139c0.016-0.046,0.022-0.093,0.017-0.131c-0.029-0.235-0.045-0.473-0.048-0.708
			c-0.001-0.113-0.092-0.238-0.148-0.257l-0.74-0.252c-0.695-0.237-1.068-0.995-0.832-1.689l0.411-1.208
			c0.236-0.695,0.994-1.068,1.689-0.831l0.74,0.252c0.057,0.019,0.205-0.025,0.275-0.114c0.146-0.185,0.304-0.364,0.47-0.532
			c0.026-0.026,0.05-0.068,0.066-0.114c0.027-0.081,0.021-0.146,0.01-0.167l-0.347-0.705c-0.157-0.319-0.181-0.681-0.066-1.017
			c0.115-0.337,0.354-0.608,0.672-0.766l1.145-0.563c0.659-0.324,1.458-0.052,1.783,0.606l0.347,0.705
			c0.026,0.053,0.16,0.126,0.27,0.112c0.235-0.029,0.473-0.045,0.708-0.048c0.113-0.001,0.239-0.092,0.257-0.148l0.252-0.74
			c0.236-0.695,0.994-1.068,1.689-0.832l1.208,0.411c0.695,0.236,1.068,0.994,0.832,1.689l-0.252,0.74
			c-0.019,0.056,0.025,0.204,0.113,0.274c0.185,0.146,0.363,0.304,0.531,0.47c0.079,0.078,0.229,0.102,0.282,0.076l0.706-0.347
			c0.319-0.157,0.68-0.18,1.017-0.066c0.336,0.115,0.608,0.354,0.766,0.673l0.563,1.145c0.157,0.319,0.18,0.68,0.066,1.017
			c-0.115,0.337-0.354,0.608-0.673,0.766l-0.705,0.347c-0.022,0.011-0.067,0.059-0.095,0.139c-0.016,0.046-0.022,0.094-0.017,0.131
			c0.029,0.235,0.045,0.473,0.048,0.708c0.001,0.113,0.092,0.239,0.148,0.258l0.74,0.252c0.695,0.237,1.068,0.995,0.832,1.689
			l-0.411,1.208c-0.236,0.695-0.994,1.068-1.689,0.832l-0.74-0.252c-0.056-0.019-0.204,0.025-0.274,0.114
			c-0.146,0.184-0.304,0.363-0.47,0.531c-0.026,0.026-0.051,0.068-0.066,0.114c-0.027,0.081-0.02,0.146-0.009,0.168l0.347,0.706
			c0.157,0.319,0.18,0.68,0.065,1.017c-0.114,0.337-0.353,0.608-0.672,0.766l-1.144,0.563c-0.659,0.324-1.458,0.052-1.783-0.607
			l-0.347-0.705c-0.026-0.053-0.16-0.125-0.27-0.112c-0.236,0.028-0.474,0.044-0.708,0.048c-0.113,0.001-0.238,0.092-0.257,0.148
			l-0.252,0.74c-0.236,0.695-0.994,1.068-1.689,0.832l-1.208-0.411c-0.695-0.236-1.068-0.994-0.832-1.689l0.252-0.74
			c0.019-0.056-0.025-0.205-0.113-0.275c-0.185-0.146-0.363-0.304-0.532-0.47C844.304,280.614,844.154,280.59,844.101,280.615z
			 M876.193,303.24l-0.822,2.416c-0.355,1.042-1.492,1.602-2.534,1.247l-1.478-0.503c-0.4-0.136-0.989,0.067-1.287,0.443
			c-0.276,0.35-0.577,0.689-0.892,1.009c-0.123,0.124-0.225,0.295-0.288,0.481c-0.103,0.303-0.098,0.619,0.014,0.846l0.694,1.41
			c0.235,0.479,0.271,1.02,0.099,1.525c-0.172,0.505-0.53,0.913-1.009,1.148l-2.291,1.127c-0.988,0.485-2.188,0.077-2.674-0.91
			l-0.694-1.41c-0.187-0.379-0.745-0.649-1.219-0.591c-0.445,0.055-0.897,0.085-1.343,0.091c-0.479,0.006-1,0.349-1.136,0.749
			l-0.503,1.478c-0.355,1.042-1.492,1.602-2.534,1.247l-2.416-0.822c-1.042-0.355-1.602-1.492-1.248-2.534l0.503-1.478
			c0.136-0.4-0.067-0.99-0.444-1.288c-0.349-0.276-0.688-0.576-1.008-0.891c-0.34-0.335-0.947-0.461-1.326-0.275l-1.41,0.694
			c-0.988,0.486-2.188,0.078-2.674-0.91l-1.126-2.289c-0.235-0.479-0.271-1.021-0.099-1.525s0.53-0.913,1.009-1.148l1.41-0.694
			c0.227-0.111,0.423-0.358,0.526-0.66c0.064-0.189,0.087-0.382,0.065-0.558c-0.055-0.446-0.086-0.898-0.092-1.345
			c-0.006-0.48-0.35-1.001-0.749-1.137l-1.479-0.503c-1.042-0.354-1.602-1.491-1.247-2.534l0.822-2.416
			c0.355-1.042,1.492-1.602,2.534-1.247l1.479,0.503c0.4,0.136,0.989-0.067,1.287-0.444c0.276-0.349,0.576-0.689,0.892-1.008
			c0.122-0.124,0.225-0.295,0.288-0.481c0.103-0.303,0.098-0.62-0.014-0.847l-0.692-1.408c-0.236-0.479-0.271-1.021-0.099-1.525
			c0.172-0.505,0.53-0.913,1.008-1.148l2.291-1.128c0.479-0.236,1.02-0.271,1.525-0.099s0.913,0.53,1.148,1.008l0.694,1.41
			c0.187,0.379,0.745,0.65,1.22,0.592c0.445-0.055,0.896-0.085,1.341-0.091c0.48-0.006,1.001-0.349,1.137-0.749l0.503-1.478
			c0.354-1.042,1.492-1.602,2.534-1.247l2.416,0.822c1.042,0.354,1.602,1.491,1.247,2.534l-0.503,1.478
			c-0.136,0.4,0.067,0.989,0.443,1.287c0.349,0.275,0.688,0.576,1.007,0.891c0.34,0.335,0.948,0.461,1.328,0.274l1.411-0.694
			c0.988-0.486,2.187-0.078,2.673,0.91l1.128,2.292c0.235,0.479,0.271,1.02,0.099,1.525c-0.172,0.505-0.53,0.913-1.009,1.148
			l-1.41,0.694c-0.227,0.112-0.424,0.359-0.527,0.662c-0.064,0.188-0.086,0.381-0.065,0.557c0.055,0.446,0.085,0.897,0.091,1.342
			c0.006,0.48,0.35,1,0.75,1.137l1.478,0.503C875.988,301.062,876.548,302.198,876.193,303.24z"/>
	</g>
	<g>
		<path fill="#29ABE2" d="M848.11,278.491c1.354,0.461,2.83-0.266,3.291-1.62c0.461-1.354-0.266-2.83-1.62-3.291
			c-1.354-0.461-2.83,0.266-3.291,1.62C846.03,276.554,846.756,278.03,848.11,278.491z"/>
	</g>
	<g>
		<path fill="#29ABE2" d="M862.228,293.654c-3.055-1.04-6.386,0.6-7.426,3.654c-1.04,3.055,0.6,6.386,3.655,7.426
			c3.055,1.04,6.386-0.6,7.426-3.654S865.283,294.693,862.228,293.654z"/>
	</g>
</g>
<g>
	<path fill="#29ABE2" d="M830.779,294.054l-79.467-0.199c-0.282,0.017-0.963,0.05-1.956,0.05c-5.343,0-19.747-0.948-29.938-10.45
		c-6.999-6.527-10.549-15.691-10.549-27.238v-17.251h6.273v17.251c0,9.736,2.878,17.356,8.553,22.649
		c10.488,9.778,27.129,8.739,27.297,8.723l0.219-0.008l79.734,0.398L830.779,294.054z"/>
</g>
<g>
	<polygon fill="#29ABE2" points="886.279,288.194 975.949,288.627 974.903,294.378 886.363,294.162 	"/>
</g>
<g>
	<g>
		<path fill="#29ABE2" d="M976.075,236.748c-4.812,0-8.75,3.938-8.75,8.75v87.5c0,4.812,3.938,8.75,8.75,8.75h4.473v-105H976.075z"
			/>
	</g>
	<g>
		<path fill="#29ABE2" d="M1098.575,236.748h-74.277v105h74.277c4.812,0,8.75-3.938,8.75-8.75v-87.5
			C1107.325,240.686,1103.387,236.748,1098.575,236.748z M1037.423,319.873c-2.416,0-4.375-1.959-4.375-4.375
			c0-2.417,1.959-4.375,4.375-4.375c2.417,0,4.375,1.958,4.375,4.375C1041.798,317.914,1039.84,319.873,1037.423,319.873z
			 M1037.423,306.748c-2.416,0-4.375-1.959-4.375-4.375c0-2.417,1.959-4.375,4.375-4.375c2.417,0,4.375,1.958,4.375,4.375
			C1041.798,304.789,1039.84,306.748,1037.423,306.748z M1037.423,293.623c-2.416,0-4.375-1.959-4.375-4.375
			c0-2.417,1.959-4.375,4.375-4.375c2.417,0,4.375,1.958,4.375,4.375C1041.798,291.664,1039.84,293.623,1037.423,293.623z
			 M1057.111,317.686c0,1.203-0.984,2.188-2.188,2.188h-4.375c-1.203,0-2.188-0.985-2.188-2.188v-4.375
			c0-1.203,0.984-2.188,2.188-2.188h4.375c1.203,0,2.188,0.984,2.188,2.188V317.686z M1057.111,304.561
			c0,1.203-0.984,2.188-2.188,2.188h-4.375c-1.203,0-2.188-0.985-2.188-2.188v-4.375c0-1.203,0.984-2.188,2.188-2.188h4.375
			c1.203,0,2.188,0.984,2.188,2.188V304.561z M1057.111,291.436c0,1.203-0.984,2.188-2.188,2.188h-4.375
			c-1.203,0-2.188-0.985-2.188-2.188v-4.375c0-1.203,0.984-2.188,2.188-2.188h4.375c1.203,0,2.188,0.984,2.188,2.188V291.436z
			 M1070.236,317.686c0,1.203-0.984,2.188-2.188,2.188h-4.375c-1.203,0-2.188-0.985-2.188-2.188v-4.375
			c0-1.203,0.984-2.188,2.188-2.188h4.375c1.203,0,2.188,0.984,2.188,2.188V317.686z M1070.236,304.561
			c0,1.203-0.984,2.188-2.188,2.188h-4.375c-1.203,0-2.188-0.985-2.188-2.188v-4.375c0-1.203,0.984-2.188,2.188-2.188h4.375
			c1.203,0,2.188,0.984,2.188,2.188V304.561z M1070.236,291.436c0,1.203-0.984,2.188-2.188,2.188h-4.375
			c-1.203,0-2.188-0.985-2.188-2.188v-4.375c0-1.203,0.984-2.188,2.188-2.188h4.375c1.203,0,2.188,0.984,2.188,2.188V291.436z
			 M1083.361,317.686c0,1.203-0.984,2.188-2.188,2.188h-4.375c-1.203,0-2.188-0.985-2.188-2.188v-4.375
			c0-1.203,0.984-2.188,2.188-2.188h4.375c1.203,0,2.188,0.984,2.188,2.188V317.686z M1083.361,304.561
			c0,1.203-0.984,2.188-2.188,2.188h-4.375c-1.203,0-2.188-0.985-2.188-2.188v-4.375c0-1.203,0.984-2.188,2.188-2.188h4.375
			c1.203,0,2.188,0.984,2.188,2.188V304.561z M1083.361,291.436c0,1.203-0.984,2.188-2.188,2.188h-4.375
			c-1.203,0-2.188-0.985-2.188-2.188v-4.375c0-1.203,0.984-2.188,2.188-2.188h4.375c1.203,0,2.188,0.984,2.188,2.188V291.436z
			 M1085.548,271.748h-39.375c-2.406,0-4.375-1.969-4.375-4.375v-8.75c0-2.407,1.969-4.375,4.375-4.375h39.375
			c2.406,0,4.375,1.968,4.375,4.375v8.75C1089.923,269.779,1087.954,271.748,1085.548,271.748z M1094.298,319.873
			c-2.416,0-4.375-1.959-4.375-4.375c0-2.417,1.959-4.375,4.375-4.375c2.417,0,4.375,1.958,4.375,4.375
			C1098.673,317.914,1096.715,319.873,1094.298,319.873z M1094.298,306.748c-2.416,0-4.375-1.959-4.375-4.375
			c0-2.417,1.959-4.375,4.375-4.375c2.417,0,4.375,1.958,4.375,4.375C1098.673,304.789,1096.715,306.748,1094.298,306.748z
			 M1094.298,293.623c-2.416,0-4.375-1.959-4.375-4.375c0-2.417,1.959-4.375,4.375-4.375c2.417,0,4.375,1.958,4.375,4.375
			C1098.673,291.664,1096.715,293.623,1094.298,293.623z"/>
	</g>
	<g>
		<path fill="#29ABE2" d="M1011.173,346.123h-17.5c-4.812,0-8.75-3.938-8.75-8.75V236.748c0-4.812,3.938-8.75,8.75-8.75h17.5
			c4.812,0,8.75,3.938,8.75,8.75v100.625C1019.923,342.185,1015.986,346.123,1011.173,346.123z"/>
	</g>
</g>
<g>
	<path fill="#195B90" stroke="#FFFFFF" stroke-width="1.8411" stroke-miterlimit="10" d="M667.467,272.823H469.21
		c-30.743,0-55.755-25.028-55.755-55.792c0-30.75,25.012-55.769,55.755-55.769c1.243,0,2.487,0.043,3.727,0.126
		c2.611-9.459,7.656-17.993,14.82-24.98c10.46-10.195,24.268-15.809,38.884-15.809c6.93,0,13.786,1.299,20.186,3.796
		c4.184-8.664,10.216-16.327,17.73-22.453c11.673-9.523,26.414-14.765,41.505-14.765c31.964,0,59.209,23.299,64.757,54.158
		c34.728,1.751,62.441,30.542,62.441,65.679C733.259,243.301,703.744,272.823,667.467,272.823z"/>
	<path fill="#FFFFFF" d="M469.21,175.669c-22.798,0-41.347,18.554-41.347,41.361c0,22.821,18.549,41.385,41.347,41.385h198.257
		c28.334,0,51.384-23.06,51.384-51.402c0-28.317-23.05-51.354-51.384-51.354c-0.826,0-1.67,0.026-2.549,0.077l-7.089,0.431
		l-0.53-7.085c-1.996-26.635-24.503-47.498-51.237-47.498c-11.782,0-23.29,4.092-32.4,11.52
		c-7.508,6.122-13.126,14.207-16.249,23.378l-2.818,8.276l-7.586-4.349c-6.253-3.588-13.107-5.405-20.369-5.405
		c-10.838,0-21.072,4.162-28.824,11.718c-6.592,6.43-10.767,14.623-12.078,23.69l-1.082,7.509l-7.443-1.472
		C474.587,175.931,471.894,175.669,469.21,175.669z"/>
	<g>
		<g>
			<path fill="#195B90" d="M617.107,182.19h-87.505c-4.792,0-8.694-3.903-8.694-8.698v-7.777c0-4.798,3.902-8.701,8.694-8.701
				h87.505c4.795,0,8.699,3.903,8.699,8.701v7.777C625.806,178.287,621.903,182.19,617.107,182.19z M529.603,162.745
				c-1.637,0-2.967,1.333-2.967,2.971v7.777c0,1.636,1.33,2.97,2.967,2.97h87.505c1.64,0,2.97-1.334,2.97-2.97v-7.777
				c0-1.638-1.33-2.971-2.97-2.971H529.603z"/>
		</g>
		<path fill="#DC5A05" d="M616.483,169.605c0,1.073-0.871,1.942-1.944,1.942c-1.071,0-1.943-0.869-1.943-1.942
			c0-1.073,0.872-1.946,1.943-1.946C615.611,167.659,616.483,168.531,616.483,169.605z"/>
		<path fill="#DC5A05" d="M609.96,169.605c0,1.073-0.873,1.942-1.946,1.942c-1.069,0-1.942-0.869-1.942-1.942
			c0-1.073,0.873-1.946,1.942-1.946C609.087,167.659,609.96,168.531,609.96,169.605z"/>
		<path fill="#DC5A05" d="M603.438,169.605c0,1.073-0.875,1.942-1.943,1.942c-1.072,0-1.943-0.869-1.943-1.942
			c0-1.073,0.871-1.946,1.943-1.946C602.563,167.659,603.438,168.531,603.438,169.605z"/>
		<rect x="530.97" y="166.429" fill="#DC5A05" width="36.783" height="6.48"/>
		<g>
			<path fill="#195B90" d="M617.107,211.354h-87.505c-4.792,0-8.694-3.898-8.694-8.694v-7.78c0-4.794,3.902-8.697,8.694-8.697
				h87.505c4.795,0,8.699,3.903,8.699,8.697v7.78C625.806,207.456,621.903,211.354,617.107,211.354z M529.603,191.911
				c-1.637,0-2.967,1.332-2.967,2.968v7.78c0,1.636,1.33,2.968,2.967,2.968h87.505c1.64,0,2.97-1.332,2.97-2.968v-7.78
				c0-1.637-1.33-2.968-2.97-2.968H529.603z"/>
		</g>
		<path fill="#DC5A05" d="M616.483,198.773c0,1.07-0.871,1.941-1.944,1.941c-1.071,0-1.943-0.871-1.943-1.941
			c0-1.075,0.872-1.947,1.943-1.947C615.611,196.826,616.483,197.699,616.483,198.773z"/>
		<path fill="#DC5A05" d="M609.96,198.773c0,1.07-0.873,1.941-1.946,1.941c-1.069,0-1.942-0.871-1.942-1.941
			c0-1.075,0.873-1.947,1.942-1.947C609.087,196.826,609.96,197.699,609.96,198.773z"/>
		<path fill="#DC5A05" d="M603.438,198.773c0,1.07-0.875,1.941-1.943,1.941c-1.072,0-1.943-0.871-1.943-1.941
			c0-1.075,0.871-1.947,1.943-1.947C602.563,196.826,603.438,197.699,603.438,198.773z"/>
		<rect x="530.97" y="195.597" fill="#DC5A05" width="36.783" height="6.483"/>
		<g>
			<path fill="#195B90" d="M617.107,240.525h-87.505c-4.792,0-8.694-3.903-8.694-8.697v-7.779c0-4.795,3.902-8.699,8.694-8.699
				h87.505c4.795,0,8.699,3.905,8.699,8.699v7.779C625.806,236.621,621.903,240.525,617.107,240.525z M529.603,221.078
				c-1.637,0-2.967,1.332-2.967,2.971v7.779c0,1.636,1.33,2.969,2.967,2.969h87.505c1.64,0,2.97-1.332,2.97-2.969v-7.779
				c0-1.639-1.33-2.971-2.97-2.971H529.603z"/>
		</g>
		<path fill="#DC5A05" d="M616.483,227.937c0,1.075-0.871,1.944-1.944,1.944c-1.071,0-1.943-0.87-1.943-1.944
			c0-1.072,0.872-1.945,1.943-1.945C615.611,225.992,616.483,226.865,616.483,227.937z"/>
		<path fill="#DC5A05" d="M609.96,227.937c0,1.075-0.873,1.944-1.946,1.944c-1.069,0-1.942-0.87-1.942-1.944
			c0-1.072,0.873-1.945,1.942-1.945C609.087,225.992,609.96,226.865,609.96,227.937z"/>
		<path fill="#DC5A05" d="M603.438,227.937c0,1.075-0.875,1.944-1.943,1.944c-1.072,0-1.943-0.87-1.943-1.944
			c0-1.072,0.871-1.945,1.943-1.945C602.563,225.992,603.438,226.865,603.438,227.937z"/>
		<rect x="530.97" y="224.764" fill="#DC5A05" width="36.783" height="6.482"/>
	</g>
</g>
</svg>
