<svg width="500" height="300" viewBox="0 0 500 300" fill="none" xmlns="http://www.w3.org/2000/svg">
  <rect width="500" height="300" rx="10" fill="#F8F9FA"/>
  <rect x="50" y="50" width="300" height="200" rx="5" fill="white" stroke="#DEE2E6" stroke-width="2"/>
  <rect x="70" y="80" width="200" height="10" rx="2" fill="#4361EE" fill-opacity="0.2"/>
  <rect x="70" y="100" width="260" height="6" rx="2" fill="#E9ECEF"/>
  <rect x="70" y="116" width="260" height="6" rx="2" fill="#E9ECEF"/>
  <rect x="70" y="132" width="180" height="6" rx="2" fill="#E9ECEF"/>
  <rect x="70" y="160" width="120" height="8" rx="2" fill="#4361EE" fill-opacity="0.3"/>
  <rect x="70" y="180" width="260" height="6" rx="2" fill="#E9ECEF"/>
  <rect x="70" y="196" width="260" height="6" rx="2" fill="#E9ECEF"/>
  <rect x="70" y="212" width="180" height="6" rx="2" fill="#E9ECEF"/>
  <rect x="380" y="70" width="100" height="140" rx="5" fill="white" stroke="#DEE2E6" stroke-width="2"/>
  <rect x="390" y="90" width="80" height="6" rx="2" fill="#E9ECEF"/>
  <rect x="390" y="106" width="80" height="6" rx="2" fill="#E9ECEF"/>
  <rect x="390" y="122" width="60" height="6" rx="2" fill="#E9ECEF"/>
  <rect x="390" y="150" width="40" height="40" rx="5" fill="#4361EE" fill-opacity="0.1"/>
  <path d="M410 170L415 175L425 165" stroke="#4361EE" stroke-width="2" stroke-linecap="round" stroke-linejoin="round"/>
  <rect x="390" y="200" width="80" height="6" rx="2" fill="#E9ECEF"/>
  <circle cx="400" cy="240" r="30" fill="#4361EE" fill-opacity="0.1"/>
  <path d="M390 240H410M400 230V250" stroke="#4361EE" stroke-width="2" stroke-linecap="round" stroke-linejoin="round"/>
</svg>
